<svg xmlns="http://www.w3.org/2000/svg" viewBox="0 0 440.62 101.56"><defs><style>.cls-1{fill:#005baa;}</style></defs><g id="Layer_2" data-name="Layer 2"><g id="Layer_1-2" data-name="Layer 1"><path class="cls-1" d="M94.47,40.87c-1.73,7.43-5.83,16-12,24.46a111,111,0,0,1-9.94,11.82c-8.13,8.34-16.82,14.6-24.82,18.35A47.24,47.24,0,0,0,82.52,80,46.87,46.87,0,0,0,94.47,40.87Z"/><path class="cls-1" d="M82.52,50.6C90.58,38.71,96.42,26.69,98.23,17a43.27,43.27,0,0,0,.69-6.11v-.7c-.07-4.65-1.6-8-5.63-9.66-2.78-.9-6.46-.69-10.77.63A53,53,0,0,0,70.91,6.81a47.19,47.19,0,0,0-59.08,9.94C-.2,29.81-3.53,51.08,4,67.14l.07-.07C1,59.49.78,50.46,2.58,42.33A35.06,35.06,0,0,1,3.9,37.46c.14-.42.28-.76.42-1.18a16.78,16.78,0,0,1,1.11-2.37c4.94-10.42,13.7-16.47,20.3-13.41s8.06,13.35,3.2,24.68C27.54,48.1,24.27,54.35,20.45,61c-9.53,16.55-17.52,38.09-3.76,40.46,4.24.41,9-.77,14.18-3.2C48.25,91.26,68.62,71.1,82.52,50.6Zm0-45.74C90.93,2.43,94,7.71,87.45,22.38a32.24,32.24,0,0,0-4.93-6.47,67.5,67.5,0,0,0-8.41-7.23A34.9,34.9,0,0,1,82.52,4.86Z"/><polygon class="cls-1" points="386.58 25.21 386.4 34.28 408.34 34.28 408.34 76.35 418.5 76.35 418.5 34.1 440.62 34.1 440.62 25.21 386.58 25.21"/><path class="cls-1" d="M348.14,25H313.51V76.35h10.7V57.67h16.13l7.8-.18c16.14.18,19.22-10.52,19.22-16C367.36,36.27,364.64,25,348.14,25ZM347.05,48.6H324.21V33.74h22.84c6.35.18,9.43,3.62,9.43,7.25C356.67,45.34,353.58,48.42,347.05,48.6Z"/><polygon class="cls-1" points="264.55 64.02 229.74 25.21 217.04 25.21 217.04 76.35 227.2 76.35 227.2 37.72 262.19 76.35 274.52 76.35 274.52 25.21 264.55 25.21 264.55 64.02"/><polygon class="cls-1" points="159.2 65.47 138.53 25.03 127.47 25.03 153.58 76.53 164.46 76.53 190.93 25.21 180.05 25.21 159.2 65.47"/></g></g></svg>