<svg xmlns="http://www.w3.org/2000/svg" viewBox="0 0 923.08 169.51"><defs><style>.cls-1{fill:#3253dc;}</style></defs><g id="Layer_2" data-name="Layer 2"><g id="Layer_1-2" data-name="Layer 1"><path class="cls-1" d="M249.14,48.65a4.6,4.6,0,0,1,4.6,4.59V141a4.66,4.66,0,0,1-4.6,4.48h-11.9a4.43,4.43,0,0,1-4.47-4.24v-8.13c-6,8.84-16.38,15-31.45,15-25.21,0-40.76-16.73-40.76-41.58V53a4.66,4.66,0,0,1,4.59-4.48h11.9A4.49,4.49,0,0,1,181.53,53v50.06c0,16.14,8.48,26.86,25.21,26.86,16.37,0,26-11.07,26-26.62V53a4.64,4.64,0,0,1,4.47-4.48h11.9M73.62,0C32.87,0,0,31.69,0,74s32.87,74,73.62,74a74.62,74.62,0,0,0,20-2.71l8,20.62a5.23,5.23,0,0,0,5.42,3.65H119.8c3.06,0,5.3-2,3.89-5.89l-10.37-27c20.38-12.84,33.93-35.58,33.93-62.79C147.25,31.69,114.38,0,73.62,0m32,117-9.3-24.15a6,6,0,0,0-6-3.88H78.22c-3.06,0-5.42,2-4,5.89l12.25,31.68a50,50,0,0,1-12.84,1.54c-29.8,0-51-23.45-51-54.07s21.2-54.07,51-54.07,51,23.44,51,54.07c0,17.9-7.19,33.22-19,43m817.05,23.56c1.06,2.48-.24,4.83-3.18,4.83H906.22a5.2,5.2,0,0,1-5.3-3.65L876.3,75.51l-25,66.2a5.26,5.26,0,0,1-5.31,3.65H834.13a5.24,5.24,0,0,1-5.3-3.65L803.62,75.16l-24.86,66.55a5.4,5.4,0,0,1-5.3,3.65H761a5.4,5.4,0,0,1-5.3-3.65L731.05,75.16l-25.44,66.55a5.25,5.25,0,0,1-5.3,3.65h-11.9a5.25,5.25,0,0,1-5.3-3.65L658.25,75.16,633.4,141.71a5.21,5.21,0,0,1-5.3,3.65h-13c-3.06,0-4.24-2.47-3.18-4.83l33.69-88.11q1.59-3.89,5.3-3.89h14.49c2.47,0,4.24,1.18,5.3,3.89L695,116.74l24-64.32q1.59-3.89,5.3-3.89h14.25c2.48,0,4.24,1.18,5.3,3.89l23.8,64.32,23.79-64.32q1.59-3.89,5.3-3.89h14.38c2.47,0,4.24,1.18,5.3,3.89l24.15,64.32,23.56-64.32c1.06-2.59,2.82-3.89,5.3-3.89H884c2.47,0,4.24,1.18,5.3,3.89l33.45,88.11M364.47,48.65h-11.9a4.6,4.6,0,0,0-4.6,4.59v8c-6-9.07-17.78-15.54-31.68-15.54-26.27,0-48.77,20.73-48.77,51,0,30.63,22.62,51.24,48.65,51.24,14.14,0,25.56-6.47,31.92-15.55v8.49a4.65,4.65,0,0,0,4.6,4.47h11.89a4.47,4.47,0,0,0,4.48-4.47V53.24a4.67,4.67,0,0,0-4.59-4.59m-45.94,80c-17.32,0-29.69-14.14-29.69-31.69,0-17.79,12.25-31.45,29.69-31.45,17.19,0,29.68,13.66,29.68,31.45s-12.6,31.69-29.68,31.69m187.88,3.06c2.59,3.18.36,5.65-1.06,6.71-8.24,6.25-19.2,9.66-31.1,9.66-30,0-50.06-22-50.06-51s20-51.25,50.06-51.25c11.9,0,22.74,3.42,31.1,9.66,1.42,1.06,3.42,3.18,1.06,6.72l-5.65,7.89c-2.24,3.06-4.83,2.24-7.07.82C488.39,67.73,482.15,65,475,65c-17.55,0-29.21,14.14-29.21,32.05S457.41,129,475,129c7.3,0,13.08-2.83,18.38-5.89,2.24-1.18,4.59-2.24,7.07,1.06Zm56.07-85.76c-28.27,0-50.77,22.15-50.77,51,0,29.09,22.62,51,50.77,51s50.78-22,50.78-51a50.32,50.32,0,0,0-50.78-51m0,82.58c-17.31,0-29.68-13.9-29.68-31.45,0-17.79,12.25-31.46,29.68-31.46s29.69,13.67,29.69,31.46c0,17.55-12.25,31.45-29.69,31.45M406.17,2.59a4.57,4.57,0,0,1,4.47,4.6V140.77a4.42,4.42,0,0,1-4.47,4.59h-11.9a4.76,4.76,0,0,1-4.59-4.59V7.3a4.75,4.75,0,0,1,4.59-4.59h11.9"/></g></g></svg>