<svg xmlns="http://www.w3.org/2000/svg" viewBox="0 0 386.91 72.66"><defs><style>.cls-1{fill:#ed1c24;}</style></defs><g id="Layer_2" data-name="Layer 2"><g id="Layer_1-2" data-name="Layer 1"><path class="cls-1" d="M39.54,57c-.59,1.27-1.21,1.95-1.43,1.95s-.83-.68-1.43-1.95l-16-33.89A13.61,13.61,0,0,0,8.33,15.27H0l26.92,52.2c2.65,5.09,7.9,5.19,10.84,5.19h.35c3.37,0,8.47,0,11.06-5.19l26.92-52.2H67.78a13.63,13.63,0,0,0-12.32,7.82Z"/><rect class="cls-1" x="77.86" y="15.27" width="16.3" height="56.76" rx="4.68"/><path class="cls-1" d="M264.53,61.64c-2,0-8.25,0-11.72-2.35-3.94-2.6-3.91-7.13-3.88-10.77V25.66H263.4a5,5,0,0,0,5-5V15.27H248.93V7.51a5.27,5.27,0,0,0-5.27-5.28h-5.75a5.27,5.27,0,0,0-5.28,5.28v7.76H200.44v-8a5,5,0,0,0-5-5h-6.27a5,5,0,0,0-5,5v8h-9.6v5.08a5.31,5.31,0,0,0,5.31,5.31h4.29V53.35c0,6.75,2.22,11.22,7.18,14.5,4.6,3,9.91,4.18,18.94,4.18H217a3.29,3.29,0,0,0,3.3-3.29v-7.1H216c-2,0-8.26,0-11.73-2.35-3.94-2.6-3.9-7.13-3.88-10.77V25.66h32.19V53.35c0,6.75,2.22,11.22,7.18,14.5,4.6,3,9.9,4.18,18.93,4.18h6.77a3.29,3.29,0,0,0,3.29-3.29v-7.1Z"/><path class="cls-1" d="M120.32,55.32a31.34,31.34,0,0,1-.89-7.1h40.06c3.48,0,5.88-.69,7.79-2.21,3.05-2.44,3.46-5.81,3.46-8.79,0-6.25-1.15-14-10.12-18.53-6.61-3.35-15.1-3.63-23.23-3.63-6.49,0-18.56,0-26.31,5.35s-8.49,13.28-8.49,23.77c0,7.48.4,15.24,5.12,20.64C113.61,71.47,122,72,129.36,72H165a3.47,3.47,0,0,0,3.47-3.47V61.64H134C128,61.64,122.15,60.87,120.32,55.32Zm-.88-17.38h0c.1-3.46.19-6.19,3.06-8.8,4.08-3.69,10.25-3.68,14.35-3.69h.33c4.41,0,9.43.2,13.27,2.55,1,.63,4.37,3,4.37,7.33,0,1.44-.36,2.91-3.05,2.91H130.26c-2.8.08-8.89.74-10.82,4.73Z"/><path class="cls-1" d="M290.17,55.32a31.85,31.85,0,0,1-.9-7.1h40.07c3.48,0,5.88-.69,7.79-2.21,3-2.44,3.46-5.81,3.46-8.79,0-6.25-1.15-14-10.12-18.53-6.62-3.35-15.1-3.63-23.23-3.63-6.49,0-18.57,0-26.31,5.35s-8.49,13.28-8.49,23.77c0,7.48.4,15.24,5.12,20.64,5.89,6.65,14.27,7.21,21.65,7.21h35.66a3.47,3.47,0,0,0,3.48-3.47V61.64H303.82C297.81,61.64,292,60.87,290.17,55.32Zm-.89-17.38h0c.11-3.46.2-6.19,3.07-8.8,4.08-3.69,10.25-3.68,14.35-3.69H307c4.41,0,9.43.2,13.27,2.55,1,.63,4.37,3,4.37,7.33,0,1.44-.37,2.91-3.05,2.91H300.11c-2.8.08-8.89.74-10.83,4.73Z"/><path class="cls-1" d="M82.28,0a4.42,4.42,0,0,0-4.42,4.41V15.06c1.38-3.24,4.63-4.55,7.93-4.88.53,0,1.84-.06,3.3-.06a5.06,5.06,0,0,0,5.08-5.06V4.41A4.42,4.42,0,0,0,89.75,0Z"/><path class="cls-1" d="M365.85,53.88V6.76a4.92,4.92,0,0,0-4.92-4.92h-6.46a4.92,4.92,0,0,0-4.92,4.92V53.19A18.85,18.85,0,0,0,368.4,72h12.87a5.64,5.64,0,0,0,5.64-5.64V61.64h-13.3A7.76,7.76,0,0,1,365.85,53.88Z"/></g></g></svg>