<svg xmlns="http://www.w3.org/2000/svg" viewBox="0 0 662.79 105.41"><defs><style>.cls-1{fill:#ed1c24;}.cls-2{fill:#0061af;}</style></defs><g id="Layer_2" data-name="Layer 2"><g id="Layer_1-2" data-name="Layer 1"><path class="cls-1" d="M510.89,35.64l0,0ZM568.63,50.5h0a20.64,20.64,0,0,0-4.49-9.06v0a22.46,22.46,0,0,0-11.78-6.94c-4.53-1.2-11.22-1.78-20.38-1.78-10,0-16.46,1.18-21.05,2.92a19.31,19.31,0,0,0-5.89,3.9V36.13H492.08v68.36h13V61.06c0-11.32,11.5-15.8,23-15.8h5.72c11.48,0,23.07,4.48,23.07,15.8v43.43h12.86V67.2c0-8.46-.33-13.61-1.06-16.7"/><path class="cls-1" d="M349.64,32.5h12.95c.15-7,.38-13.67,1.14-16.71a14.7,14.7,0,0,1,3.92-7.59,20.14,20.14,0,0,1,9.47-6C381,1.09,387.7.18,396.42,0l12.16,0L396.87,11.51h-4.94c-17.23,0-16,11.12-16,21H406.2L394,45.05H375.61l.06,59.34H362.59V45.05H349.64Z"/><rect class="cls-1" x="336.68" y="10.01" width="12.95" height="13.39"/><path class="cls-2" d="M236.64,68.64c0,8.14-.94,14.8-2.82,19.8-1.89,5.2-8.31,17-39.63,17s-37.74-11.76-39.62-17c-1.87-5-2.81-11.66-2.81-19.8s.94-14.82,2.81-19.81c1.88-5.2,8.33-16.93,39.62-16.93s37.74,11.73,39.63,16.93c1.88,5,2.82,11.68,2.82,19.81m-16.39-15.7h0a10.09,10.09,0,0,0-6.53-6c-3.33-1.08-9.24-1.7-19.53-1.87-10.3.17-16.17.79-19.54,1.87a10.13,10.13,0,0,0-6.51,6c-1,2.26-2.06,7.76-2.06,15.7s1.1,13.45,2.06,15.71a10.1,10.1,0,0,0,6.51,6c3.37,1.1,9.24,1.73,19.54,1.87,10.29-.14,16.2-.77,19.53-1.87a10.06,10.06,0,0,0,6.53-6c1-2.26,2.05-7.76,2.05-15.71s-1.09-13.44-2.05-15.7"/><path class="cls-1" d="M482.56,68.64c0,8.14-.94,14.8-2.8,19.8-1.89,5.2-8.33,17-39.63,17s-37.75-11.76-39.64-17c-1.85-5-2.81-11.66-2.81-19.8s1-14.82,2.81-19.81c1.89-5.2,8.33-16.93,39.64-16.93s37.74,11.73,39.63,16.93c1.86,5,2.8,11.68,2.8,19.81m-16.39-15.7h0a10.05,10.05,0,0,0-6.52-6c-3.35-1.08-9.25-1.7-19.52-1.87-10.32.17-16.2.79-19.55,1.87a10.17,10.17,0,0,0-6.52,6c-.95,2.26-2,7.76-2,15.7s1.09,13.45,2,15.71a10.14,10.14,0,0,0,6.52,6c3.35,1.1,9.23,1.73,19.55,1.87,10.27-.14,16.17-.77,19.52-1.87a10,10,0,0,0,6.52-6c1-2.26,2.05-7.76,2.05-15.71s-1.08-13.44-2.05-15.7"/><path class="cls-2" d="M83,35.15h0Zm0,0Zm58.43,15.24h0a20.94,20.94,0,0,0-4.53-9.08h0A22.85,22.85,0,0,0,125,34.37c-4.58-1.21-11.16-1.79-20.43-1.79-10.09,0-17,.8-21.57,2.57h0a18.83,18.83,0,0,0-9.33,7.5A20.91,20.91,0,0,0,63.28,35c-4.79-1.63-13.7-2.41-24.93-2.41-8.46,0-14.25.59-17.74,1.83l0,0A22.47,22.47,0,0,0,13,39.53V36H0v68.35H12.94V61c0-11.34,11.43-15.82,23-15.82h5.8c11.53,0,23.1,4.48,23.1,15.82v43.4H77.74V61c0-11.34,11.29-15.82,22.84-15.82h5.81c11.53,0,23.11,4.48,23.11,15.82v43.4h12.93V67.09c0-8.46-.32-13.62-1.05-16.7"/><path class="cls-1" d="M656,73.63h6.62c.1-1.6.14-3.26.14-5,0-8.13-.93-14.82-2.8-19.81-1.89-5.2-8.33-16.94-39.63-16.94s-37.75,11.74-39.63,16.94c-1.86,5-2.81,11.68-2.81,19.81s1,14.8,2.81,19.81c1.88,5.2,8.33,17,39.63,17s37.74-11.76,39.63-17c.16-.45.32-.93.47-1.42H644.83a10.51,10.51,0,0,1-4.93,3.3c-3.36,1.09-9.25,1.73-19.54,1.87-10.29-.14-16.18-.78-19.54-1.87a10.1,10.1,0,0,1-6.52-6c-.75-1.73-1.56-5.4-1.88-10.64H656ZM600.82,46.94h0c3.36-1.08,9.25-1.7,19.54-1.86,10.29.16,16.18.78,19.54,1.86a10.16,10.16,0,0,1,6.53,6,32.86,32.86,0,0,1,1.69,8.39H592.59a31.78,31.78,0,0,1,1.71-8.39,10.1,10.1,0,0,1,6.52-6"/><rect class="cls-2" x="336.7" y="32.49" width="12.94" height="71.88"/><path class="cls-2" d="M324.74,48.85c-1.87-5.2-8.33-17-39.61-17-12,0-20.3,1.72-26.14,4.12V0H246.06V104.55H259v-3.29c5.84,2.41,14.15,4.15,26.14,4.15,31.28,0,37.74-11.76,39.61-17,1.88-5,2.83-11.67,2.83-19.81s-.95-14.8-2.83-19.79m-13.55,35.5h0a10.15,10.15,0,0,1-6.53,6c-3.36,1.08-9.24,1.72-19.53,1.86-10.3-.14-14.36-.78-17.69-1.86a10.1,10.1,0,0,1-6.54-6c-.75-1.8-1.59-5.59-1.91-11V64c.32-5.44,1.16-9.25,1.91-11a10.06,10.06,0,0,1,6.54-6c3.33-1.11,7.39-1.72,17.69-1.88,10.29.16,16.17.77,19.53,1.88a10.11,10.11,0,0,1,6.53,6c.95,2.26,2,7.76,2,15.7s-1.08,13.45-2,15.71"/></g></g></svg>