<svg xmlns="http://www.w3.org/2000/svg" viewBox="0 0 907.86 127.09"><defs><style>.cls-1{fill:#010101;}</style></defs><g id="Layer_2" data-name="Layer 2"><g id="Layer_1-2" data-name="Layer 1"><g id="Layer_1-2-2" data-name="Layer 1-2"><path class="cls-1" d="M341.5,77.21C343,65.87,350.23,58.4,362.05,58.4c12.35,0,20.06,7.22,20.24,18.81Zm21.56-33.75c-24,0-41.48,16.74-41.48,41.76S340,127,366.58,127a56.31,56.31,0,0,0,21.24-3.91l11.34-19-1.52-.76a64.1,64.1,0,0,1-29.26,7.71c-13.75,0-25.53-7-26.88-18.84h60.66V86.8c0-27.65-16.91-43.29-39.1-43.29m406.5,33.75c1.54-11.34,8.79-18.81,20.56-18.81,12.34,0,20,7.22,20.21,18.81Zm21.6-33.75c-24,0-41.48,16.74-41.48,41.76s18.41,41.82,44.93,41.82a56.12,56.12,0,0,0,21.27-4l11.34-19-1.51-.76a63.94,63.94,0,0,1-29.29,7.71c-13.7,0-25.48-7-26.87-18.84h60.69c2.55-31.09-14.19-48.73-39.08-48.73M482.73,77.21c1.51-11.34,8.77-18.81,20.56-18.81,12.33,0,20.07,7.22,20.19,18.81Zm21.54-33.75c-23.92,0-41.43,16.74-41.43,41.76S481.25,127,507.78,127A56.21,56.21,0,0,0,529,123.13l11.4-19-1.56-.76a62.91,62.91,0,0,1-29.26,7.71c-13.76,0-25.47-7-26.85-18.84H543.4c2.57-31.09-14.18-48.73-39.13-48.73M54.35,107.13H35.17V73.35H55.11C72,73.35,80,77.55,80,89.93c0,15.35-14.94,17.2-25.65,17.2M35.17,25.6H52.39c11.61,0,15.22,1.52,18.69,5C73.8,33.13,75,36.6,75,40.73a13.25,13.25,0,0,1-4.11,9.71c-3.45,3.39-8.13,4.92-16.73,4.92h-19ZM75.45,63.2v-.31c12.24-3.61,20.38-12.5,20.38-25.67,0-21.43-18.1-29.6-35.92-29.6H0V9.45L6,14.6c7.24,5.87,8.17,6.94,8.17,12.18v98.15H56.45c22.18,0,44.4-7.87,44.4-33.33,0-15.15-10.59-26.73-25.4-28.4m55-56.57c-7.28,0-12.58,5.55-12.58,11.89,0,6.17,5.3,11.9,12.58,11.9s13-5.06,13-11.9-5.61-11.89-13-11.89M110,46.73l3.06,2.59c7.2,5.44,7.52,6.51,7.52,13.14v62.47h19.9V45.54H110Zm154.23,62.33c-14.5,0-23.24-11.44-23.24-23.84s8.74-23.85,23.24-23.85,23.42,11.46,23.42,23.85-8.77,23.84-23.42,23.84m10-104.88,6.35,4.08c5.52,3.6,6.44,5.25,6.44,10.4v37h-.45c-4.23-5.26-12.17-12.2-27-12.2-22.77,0-38.48,18.24-38.48,41.77s14.78,41.82,39.23,41.82c11.15,0,21.57-4.39,27.34-14h.27L290,124.92h16.91V2.81h-32.7ZM692.48,109.06c-14.67,0-23.36-11.44-23.36-23.84s8.69-23.85,23.36-23.85,23.36,11.46,23.36,23.85-8.73,23.84-23.36,23.84m9.2-104.88,2.73,2c9.62,6,10.7,7.7,10.7,18.13V55.68h-.45c-4.1-5.26-12.08-12.2-27-12.2-22.6,0-38.29,18.24-38.29,41.77s14.62,41.82,39.21,41.82c11,0,21.42-4.39,27.28-14h.31L718.3,125H735V2.81H701.67V4.18ZM889.84,43.46c-10.58,0-19.3,5.56-23.5,14.64H866V45.38H832.36l.13.9,5,3.34c8,5.16,8.59,6.68,8.59,16.6v58.71H866V82.36c0-4.22,2.6-19.9,21.28-19.9a45.52,45.52,0,0,1,9.65,1.35V44.63a26.48,26.48,0,0,0-7.07-1.17M440.48,30.8c0-13.93,12.23-18,28.21-11.66l.92-.92L465.08,1.48C434.64-4.66,420.41,9,420.41,30.63v14.5H401.13v1.16l10.09,8.32c7.85,6.21,9.19,7.69,9.19,14.36v56h20.07V62.13h18.43v-17H440.48ZM605.27,43.46c-8.76,0-18.73,4.37-25.37,14.19h-.27V45.54H562.69v-.16H547.15v.9l5,3.34c8,5.16,8.57,6.68,8.57,16.6v58.71h19.94V81.62c0-10.59,5.14-20.24,18.13-20.24,14,0,16.13,10.57,16.13,19.33v44.22h19.91V74.83c0-18.43-10.85-31.37-29.55-31.37M188.2,98.36V62.46h21.3V45.54H188.2V22.47H175.67l-7.41,23.07H149.11v.91l7.07,6.2c11.17,9.17,12.07,8.87,12.07,14V98.92c0,26,18.29,30.62,34.41,26.27l9.84-15.84-.61-.31c-13.87,4.09-23.7,3.65-23.7-10.71M906.6,10.13a3.63,3.63,0,0,1-.59,2.14L904.6,13.5l-1.87.52-1.93.07h-4.36v-8h5l1.89.22,1.66.55,1.16,1.26a4,4,0,0,1,.45,2m-5.14-4.66h-5.64V22.89h.62V14.72h5l.32-.05h.11v.06l5.24,8.16h.75l-5.36-8.27h.18l1.71-.41,1.43-.83,1-1.36.37-1.9A4.33,4.33,0,0,0,905.8,6.7a6.24,6.24,0,0,0-4.35-1.24"/></g></g></g></svg>