<svg xmlns="http://www.w3.org/2000/svg" viewBox="0 0 111.48 47.87"><defs><style>.cls-1{fill:#fff;}</style></defs><g id="Layer_2" data-name="Layer 2"><g id="Layer_1-2" data-name="Layer 1"><path class="cls-1" d="M19.33,12.52a4.73,4.73,0,0,1-2-.39A3.11,3.11,0,0,1,16,11a3.27,3.27,0,0,1-.47-1.77h1.88a1.52,1.52,0,0,0,.51,1.2,2,2,0,0,0,1.37.44,1.89,1.89,0,0,0,1.31-.44,1.5,1.5,0,0,0,.48-1.17,1.53,1.53,0,0,0-1.21-1.54l-1.5-.38A3.61,3.61,0,0,1,16.5,6.18a3,3,0,0,1-.7-2,2.91,2.91,0,0,1,.93-2.27,3.53,3.53,0,0,1,2.49-.85,4.27,4.27,0,0,1,1.85.38,2.89,2.89,0,0,1,1.21,1.08,3,3,0,0,1,.43,1.63H20.84a1.3,1.3,0,0,0-.44-1,1.67,1.67,0,0,0-1.18-.4,1.6,1.6,0,0,0-1.13.39,1.29,1.29,0,0,0-.42,1A1.22,1.22,0,0,0,18,5a1.67,1.67,0,0,0,.84.49l1.54.38a3.44,3.44,0,0,1,1.95,1.23A3.48,3.48,0,0,1,23,9.25,3.23,3.23,0,0,1,22.55,11a3,3,0,0,1-1.28,1.14A4.34,4.34,0,0,1,19.33,12.52Z"/><path class="cls-1" d="M28.46,12.33a2.89,2.89,0,0,1-2.17-.83,3,3,0,0,1-.81-2.22V6.68a3.07,3.07,0,0,1,.81-2.23,3.25,3.25,0,0,1,4.34,0,3.07,3.07,0,0,1,.81,2.23v2.6a3,3,0,0,1-.81,2.22A2.88,2.88,0,0,1,28.46,12.33Zm0-.67A2.1,2.1,0,0,0,30.09,11a2.45,2.45,0,0,0,.58-1.75V6.68a2.48,2.48,0,0,0-.58-1.76,2.14,2.14,0,0,0-1.63-.63,2.11,2.11,0,0,0-1.63.63,2.48,2.48,0,0,0-.59,1.76v2.6A2.45,2.45,0,0,0,26.82,11,2.12,2.12,0,0,0,28.46,11.66Z"/><path class="cls-1" d="M38.7,12.18a2.22,2.22,0,0,1-1.58-.53,2,2,0,0,1-.56-1.53V1.71H33.81V1h3.51v9.1a1.22,1.22,0,0,0,1.38,1.37h2.6v.69Z"/><path class="cls-1" d="M46.79,12.33a2.77,2.77,0,0,1-2.14-.83,3.2,3.2,0,0,1-.78-2.28V3.77h.76V9.22A2.53,2.53,0,0,0,45.21,11a2,2,0,0,0,1.58.65,2,2,0,0,0,1.6-.65A2.53,2.53,0,0,0,49,9.22V3.77h.77V9.22A3.17,3.17,0,0,1,49,11.49,2.82,2.82,0,0,1,46.79,12.33Z"/><path class="cls-1" d="M56.82,12.18a2,2,0,0,1-1.48-.49,1.87,1.87,0,0,1-.51-1.42V4.46H52.34V3.77h2.49V1.4h.76V3.77h3.52v.69H55.59v5.81a1.08,1.08,0,0,0,1.23,1.22H59v.69Z"/><path class="cls-1" d="M62,12.18v-.69h3.08v-7H62.4V3.77h3.45v7.72h2.89v.69Zm3.37-10a.94.94,0,0,1-.65-.23.81.81,0,0,1-.24-.61.79.79,0,0,1,.24-.61.89.89,0,0,1,.65-.23A.87.87,0,0,1,66,.72a.79.79,0,0,1,.24.61.81.81,0,0,1-.24.61A.91.91,0,0,1,65.38,2.17Z"/><path class="cls-1" d="M74.32,12.33a2.86,2.86,0,0,1-2.16-.83,3,3,0,0,1-.82-2.22V6.68a3,3,0,0,1,.82-2.23,3.24,3.24,0,0,1,4.33,0,3.07,3.07,0,0,1,.81,2.23v2.6a3,3,0,0,1-.81,2.22A2.86,2.86,0,0,1,74.32,12.33Zm0-.67A2.13,2.13,0,0,0,76,11a2.49,2.49,0,0,0,.58-1.75V6.68A2.48,2.48,0,0,0,76,4.92a2.42,2.42,0,0,0-3.26,0,2.48,2.48,0,0,0-.59,1.76v2.6A2.49,2.49,0,0,0,72.68,11,2.13,2.13,0,0,0,74.32,11.66Z"/><path class="cls-1" d="M80.59,12.18V3.77h.76V5.15A2,2,0,0,1,82.18,4a2.68,2.68,0,0,1,1.51-.41,2.64,2.64,0,0,1,2,.79,3,3,0,0,1,.75,2.16v5.61h-.77V6.68a2.59,2.59,0,0,0-.56-1.77,2,2,0,0,0-1.56-.63,2,2,0,0,0-1.6.64,2.51,2.51,0,0,0-.59,1.76v5.5Z"/><path class="cls-1" d="M91.44,12.34a2.83,2.83,0,0,1-1.88-.61,2.34,2.34,0,0,1-.85-1.6h.76a1.8,1.8,0,0,0,.65,1.09,2,2,0,0,0,1.32.44h1.12a1.94,1.94,0,0,0,1.33-.44,1.48,1.48,0,0,0,.49-1.17A1.85,1.85,0,0,0,94,8.89a1.47,1.47,0,0,0-1.06-.58l-1.85-.23a2.91,2.91,0,0,1-1.67-.69,1.91,1.91,0,0,1-.6-1.48,2.09,2.09,0,0,1,.73-1.66,2.89,2.89,0,0,1,1.93-.62h.83a2.94,2.94,0,0,1,1.87.57A2.12,2.12,0,0,1,95,5.69h-.77a1.47,1.47,0,0,0-.61-1,2.16,2.16,0,0,0-1.33-.39h-.83a2,2,0,0,0-1.36.43,1.38,1.38,0,0,0-.52,1.14,1.2,1.2,0,0,0,.42,1,2.21,2.21,0,0,0,1.19.46L93,7.56a2.35,2.35,0,0,1,2.11,2.38,2.28,2.28,0,0,1-.7,1.75,2.6,2.6,0,0,1-1.87.65Z"/><path class="cls-1" d="M25,43.14V34.73h.67v1.15h0a1.44,1.44,0,0,1,.44-1,1.42,1.42,0,0,1,1-.34,1.56,1.56,0,0,1,1,.33,1.69,1.69,0,0,1,.56.89,1.42,1.42,0,0,1,.48-.89,1.53,1.53,0,0,1,1-.33,1.51,1.51,0,0,1,1.22.54,2.13,2.13,0,0,1,.45,1.43v6.59h-.75v-6.5a1.61,1.61,0,0,0-.31-1,1,1,0,0,0-.84-.38,1.07,1.07,0,0,0-.85.38,1.56,1.56,0,0,0-.32,1v6.5h-.74v-6.5a1.67,1.67,0,0,0-.3-1,1.05,1.05,0,0,0-.85-.38,1.07,1.07,0,0,0-.85.38,1.56,1.56,0,0,0-.32,1v6.5Z"/><path class="cls-1" d="M37.11,43.29a2.79,2.79,0,0,1-2-.72,2.52,2.52,0,0,1-.74-1.86A2.37,2.37,0,0,1,35,38.94a2.57,2.57,0,0,1,1.87-.69h2.86v-.84a2.19,2.19,0,0,0-.54-1.59,2.06,2.06,0,0,0-1.54-.55,2.54,2.54,0,0,0-1.55.44,1.52,1.52,0,0,0-.63,1.16h-.77a2.17,2.17,0,0,1,.86-1.66,3.33,3.33,0,0,1,2.11-.63,2.56,2.56,0,0,1,2.83,2.83v5.73h-.77V41.75a2.15,2.15,0,0,1-1,1.12A3.26,3.26,0,0,1,37.11,43.29Zm.21-.68A2.64,2.64,0,0,0,39.11,42a2,2,0,0,0,.66-1.59V38.92H36.9a1.76,1.76,0,0,0-1.3.49,1.65,1.65,0,0,0-.51,1.24,1.78,1.78,0,0,0,.61,1.41A2.29,2.29,0,0,0,37.32,42.61Z"/><path class="cls-1" d="M44.23,43.14V34.73H45v1.32A2.07,2.07,0,0,1,45.82,35a2.44,2.44,0,0,1,1.41-.39,2.59,2.59,0,0,1,2.07.78,3.2,3.2,0,0,1,.68,2.2v.77h-.76v-.77a2.51,2.51,0,0,0-.54-1.73,2,2,0,0,0-1.57-.59,2,2,0,0,0-1.57.62A2.65,2.65,0,0,0,45,37.64v5.5Z"/><path class="cls-1" d="M56.82,43.14a2,2,0,0,1-1.48-.49,1.87,1.87,0,0,1-.51-1.42V35.42H52.34v-.69h2.49V32.36h.76v2.37h3.52v.69H55.59v5.81a1.08,1.08,0,0,0,1.23,1.22H59v.69Z"/><path class="cls-1" d="M19.33,43.29a4.73,4.73,0,0,1-2-.39A3.11,3.11,0,0,1,16,41.76,3.29,3.29,0,0,1,15.57,40h1.88A1.49,1.49,0,0,0,18,41.18a2,2,0,0,0,1.37.45,1.89,1.89,0,0,0,1.31-.44A1.5,1.5,0,0,0,21.12,40a1.53,1.53,0,0,0-1.21-1.54l-1.5-.38A3.61,3.61,0,0,1,16.5,37a3,3,0,0,1-.7-2,2.91,2.91,0,0,1,.93-2.27,3.53,3.53,0,0,1,2.49-.85,4.27,4.27,0,0,1,1.85.38,2.83,2.83,0,0,1,1.21,1.08,3,3,0,0,1,.43,1.63H20.84a1.3,1.3,0,0,0-.44-1,1.67,1.67,0,0,0-1.18-.4,1.6,1.6,0,0,0-1.13.39,1.29,1.29,0,0,0-.42,1,1.22,1.22,0,0,0,.29.85,1.67,1.67,0,0,0,.84.49l1.54.38a3.39,3.39,0,0,1,1.95,1.23A3.48,3.48,0,0,1,23,40a3.26,3.26,0,0,1-.45,1.73,3,3,0,0,1-1.28,1.14A4.34,4.34,0,0,1,19.33,43.29Z"/><circle class="cls-1" cx="65.18" cy="41.73" r="1.98"/><circle class="cls-1" cx="79.54" cy="41.73" r="1.98"/><circle class="cls-1" cx="93.9" cy="41.73" r="1.98"/><path class="cls-1" d="M27.91,27.17V20.61h-2.6v-.69h2.6v-2a1.84,1.84,0,0,1,.53-1.41A2,2,0,0,1,29.9,16h2.33v.69H29.9A1.26,1.26,0,0,0,29,17a1.22,1.22,0,0,0-.32.9v2h3.56v.69H28.67v6.56Z"/><path class="cls-1" d="M37.08,27.17V20.61h-2.6v-.69h2.6v-2a1.88,1.88,0,0,1,.53-1.41,2.05,2.05,0,0,1,1.46-.5h2.34v.69H39.07a1.22,1.22,0,0,0-.9.32,1.19,1.19,0,0,0-.33.9v2h3.57v.69H37.84v6.56Z"/><path class="cls-1" d="M47.49,27.32a2.87,2.87,0,0,1-2.2-.83,3.1,3.1,0,0,1-.8-2.22v-2.6a3.07,3.07,0,0,1,.81-2.23,3.29,3.29,0,0,1,4.37,0,3.15,3.15,0,0,1,.79,2.23v1.45h-5.2v1.15A2.49,2.49,0,0,0,45.84,26a2.11,2.11,0,0,0,1.65.64,2.47,2.47,0,0,0,1.44-.41,1.67,1.67,0,0,0,.7-1.13h.77a2.6,2.6,0,0,1-1,1.62A3.12,3.12,0,0,1,47.49,27.32Zm-2.23-4.86h4.43v-.79a2.54,2.54,0,0,0-.57-1.75,2.42,2.42,0,0,0-3.28,0,2.47,2.47,0,0,0-.58,1.75Z"/><path class="cls-1" d="M56.56,27.32a2.93,2.93,0,0,1-2.21-.83,3.06,3.06,0,0,1-.81-2.22v-2.6a3.08,3.08,0,0,1,.82-2.23,3,3,0,0,1,2.2-.83,3.05,3.05,0,0,1,2.21.79,2.8,2.8,0,0,1,.81,2.11h-.76a2.13,2.13,0,0,0-.61-1.62,2.3,2.3,0,0,0-1.65-.58,2.22,2.22,0,0,0-1.65.62,2.39,2.39,0,0,0-.6,1.74v2.6a2.37,2.37,0,0,0,.6,1.72,2.19,2.19,0,0,0,1.65.63A2.27,2.27,0,0,0,58.21,26a2.12,2.12,0,0,0,.61-1.61h.76a2.83,2.83,0,0,1-.81,2.12A3.09,3.09,0,0,1,56.56,27.32Z"/><path class="cls-1" d="M66.43,27.17A2,2,0,0,1,65,26.68a1.85,1.85,0,0,1-.52-1.42V19.45H62v-.69h2.49V16.39h.77v2.37h3.51v.69H65.21v5.81a1.08,1.08,0,0,0,1.22,1.22h2.22v.69Z"/><path class="cls-1" d="M15.94,27.36V16.2h6.69v1.68H17.82v2.91H22.1v1.62H17.82v3.27h4.81v1.68Z"/><circle class="cls-1" cx="79.54" cy="25.34" r="1.98"/><circle class="cls-1" cx="93.9" cy="25.34" r="1.98"/><path class="cls-1" d="M5.8,1.69A6.78,6.78,0,0,0,4,6.8v13a2.84,2.84,0,0,1-.59,2,2.29,2.29,0,0,1-1.71.61H0v3.07H1.74a2.25,2.25,0,0,1,1.71.61,2.84,2.84,0,0,1,.59,2v13A6.78,6.78,0,0,0,5.8,46.15,7.15,7.15,0,0,0,11,47.87h1.94v-3H11.56a3.76,3.76,0,0,1-2.92-1.07,4.35,4.35,0,0,1-1-3V28.13a6.47,6.47,0,0,0-.36-2.41,2.83,2.83,0,0,0-1.1-1.35,3.88,3.88,0,0,0-1-.45,4.77,4.77,0,0,0,1-.45,2.69,2.69,0,0,0,1.1-1.33,6.45,6.45,0,0,0,.36-2.4V7.11a4.33,4.33,0,0,1,1-3A3.76,3.76,0,0,1,11.56,3h1.38V0H11A7.23,7.23,0,0,0,5.8,1.69Z"/><path class="cls-1" d="M109.74,22.4a2.31,2.31,0,0,1-1.68-.61,2.75,2.75,0,0,1-.62-2V6.8a6.78,6.78,0,0,0-1.76-5.11A7.31,7.31,0,0,0,100.44,0h-1.9V3h1.38a3.77,3.77,0,0,1,3,1.07,4.42,4.42,0,0,1,.94,3V19.74a6.45,6.45,0,0,0,.36,2.4,2.68,2.68,0,0,0,1.12,1.33,5.8,5.8,0,0,0,1,.45,4.56,4.56,0,0,0-1,.45,2.81,2.81,0,0,0-1.12,1.35,6.47,6.47,0,0,0-.36,2.41V40.76a4.44,4.44,0,0,1-.94,3,3.77,3.77,0,0,1-3,1.07H98.54v3h1.9a7.23,7.23,0,0,0,5.24-1.72,6.78,6.78,0,0,0,1.76-5.08v-13a2.75,2.75,0,0,1,.62-2,2.27,2.27,0,0,1,1.68-.61h1.74V22.4Z"/></g></g></svg>